<svg version="1.0" xmlns="http://www.w3.org/2000/svg" width="1em" height="1em" viewBox="0 0 144.000000 144.000000" preserveAspectRatio="xMidYMid meet"><g transform="translate(0.000000,144.000000) scale(0.100000,-0.100000)" fill="currentColor" stroke="currentColor"><path d="M262 1378 c-16 -16 -16 -281 -1 -344 9 -33 22 -54 54 -80 24 -19 47 -43 52 -52 4 -9 10 -201 13 -427 l5 -410 23 -3 22 -3 0 421 c0 468 0 470 -65 510 -18 11 -37 28 -41 38 -5 9 -11 93 -14 187 -4 141 -8 170 -20 173 -9 1 -21 -3 -28 -10z"></path><path d="M622 1378 c-8 -8 -12 -59 -12 -175 l0 -163 -54 -53 c-45 -43 -55 -60 -61 -97 -3 -25 -5 -211 -3 -413 l3 -369 33 -29 c34 -31 66 -36 106 -18 15 7 71 76 130 159 58 81 112 152 120 159 13 11 47 2 198 -48 101 -34 195 -61 210 -61 38 0 86 44 94 86 8 42 -3 60 -145 234 -55 69 -101 127 -101 130 0 3 50 68 111 145 61 77 117 155 125 173 28 63 -16 132 -83 132 -16 0 -109 -27 -208 -60 -99 -33 -186 -58 -192 -56 -7 3 -46 51 -88 108 l-75 102 0 -91 c0 -144 -13 -189 -71 -244 l-49 -47 0 -350 c0 -322 1 -352 17 -361 17 -9 16 -11 -1 -30 -23 -25 -39 -26 -60 -5 -14 13 -16 61 -16 375 0 248 4 367 11 382 7 12 34 43 61 68 l48 46 -2 189 c-3 159 -5 189 -18 192 -9 1 -21 -3 -28 -10z"></path><path d="M377 1374 c-4 -4 -7 -76 -7 -159 0 -159 6 -183 44 -169 15 6 16 25 14 168 -3 153 -4 161 -23 164 -12 2 -24 0 -28 -4z"></path><path d="M497 1374 c-4 -4 -7 -76 -7 -159 0 -123 3 -155 15 -165 12 -10 18 -10 30 0 13 11 15 39 13 169 -3 148 -4 156 -23 159 -12 2 -24 0 -28 -4z"></path><path d="M190 830 c-102 -31 -140 -60 -140 -106 0 -32 25 -81 48 -93 16 -8 202 -61 216 -61 3 0 6 65 6 145 0 169 12 158 -130 115z"></path></g></svg>