<?xml version="1.0" encoding="UTF-8"?>
<svg id="Capa_1" xmlns="http://www.w3.org/2000/svg" version="1.1" viewBox="0 0 182.92 177.26">
  <!-- Generator: Adobe Illustrator 29.3.1, SVG Export Plug-In . SVG Version: 2.1.0 Build 151)  -->
  <defs>
    <style>
      .st0 {
        fill: #3c3c3b;
      }

      .st1 {
        fill: #fff;
      }
    </style>
  </defs>
  <g>
    <circle class="st1" cx="94.21" cy="94.7" r="55.78"/>
    <path class="st0" d="M132.41,73.36c-3.69,8.72-2.68,20.1-8.62,31.51-3.17,6.08-9.92,10.09-16.76,10.38-3,.13-6.03-.55-8.73-1.88.22-.38.42-.78.61-1.18,1.78-3.82,2.18-8.44,1.12-12.85,7.78-8.51,15.07-13.46,15.07-13.46,0,0-7.56,2.66-15.87,10.85-1.38-3.69-3.77-7.16-6.97-10.12,1.24-1.92,2.74-3.68,4.42-5.23,7.65-7.06,17.53-8.82,35.72-8.02Z"/>
    <path class="st0" d="M56.02,79.97c3.62,8.56,2.63,19.75,8.47,30.95,3.11,5.97,9.74,9.92,16.47,10.2,4.61.19,9.27-1.54,12.67-4.61,2.27,2.64,3.47,6.33,3.47,6.33l2.13-1.61c-1.22-2.25-2.56-4.4-3.96-6.43-.22-.33-.45-.65-.68-.97-9.53-13.39-21.56-21.56-21.56-21.56,0,0,13.14,4.62,23.67,20.51.25-.42.48-.85.69-1.3,1.84-3.95,1.98-8.59.74-12.77-1.24-4.18-3.8-7.9-7-10.86-7.51-6.94-17.22-8.66-35.09-7.88Z"/>
  </g>
  <g>
    <path class="st1" d="M8.88,45.51l15.84,21.4-1.85,4.77-22.87-3.24,1.94-5.01,16.27,2.4-11.28-15.29,1.95-5.04Z"/>
    <path class="st1" d="M32.8,39.47l-7.74,10.74c2,1.24,3.81.76,5.48-1.56,1.03-1.43,1.54-3.13,1.4-4.69l3.9.24c.14,2.56-.81,5.08-2.35,7.22-3.16,4.38-7.64,5.38-11.45,2.64-4.69-3.38-5.72-9.26-2.21-14.14,2.95-4.09,7.23-4.92,10.98-2.22.76.54,1.41,1.18,1.97,1.77ZM22.9,48.22l5.01-6.96c-1.85-1.33-3.8-.83-5.15,1.04-1.41,1.95-1.22,4.11.13,5.92Z"/>
    <path class="st1" d="M44.45,16.45l6.86,12.98c3.17,5.99,1.98,10.48-2.66,14.25-2.62,2.13-5.32,3.29-7.82,3.42l-.44-4.32c1.76.02,3.99-.84,5.89-2.38,2.69-2.19,2.94-4.38,1.57-7.03l-.37-.65c-.26,1.83-1.23,3.48-2.87,4.82-3.32,2.69-7.66,2.7-10.52-.81-3.34-4.12-2.77-9.92,1.52-13.41,1.99-1.62,4.28-2.32,6.48-1.29l-1.36-2.54,3.72-3.02ZM43.76,26.41c-1.32-1.62-3.25-1.75-5.17-.19-2.29,1.86-2.62,4.82-.76,7.12,1.32,1.62,3.3,1.71,5.22.15,2.27-1.85,2.57-4.78.71-7.08Z"/>
    <path class="st1" d="M69.34,15.91l-12.12,5.35c1.09,2.08,2.9,2.59,5.52,1.43,1.62-.71,2.91-1.92,3.59-3.34l3.25,2.18c-1.17,2.28-3.27,3.97-5.68,5.04-4.94,2.18-9.32.77-11.21-3.52-2.34-5.29-.24-10.89,5.26-13.32,4.62-2.04,8.74-.59,10.6,3.65.38.85.62,1.73.8,2.53ZM56.36,18.44l7.85-3.47c-.92-2.09-2.85-2.64-4.97-1.71-2.21.97-3.14,2.93-2.89,5.17Z"/>
    <path class="st1" d="M78.46,15.31c-.01.26.03.48.08.7.21,1.04.9,1.52,2.13,1.27.66-.13,1.31-.5,1.86-1l1.44,3.35c-1.08,1.01-2.54,1.57-4.02,1.86-3.15.64-5.65-.69-6.25-3.65-.1-.47-.14-.99-.14-1.51l-.04-7.11-2.61.53v-3.93s2.6-.53,2.6-.53l-.02-4.29,4.91-1,.02,4.3,4.22-.86v3.93s-4.21.86-4.21.86l.03,7.08Z"/>
    <path class="st1" d="M106.36,2.79l-3.74,17.24-4.76-.09.35-1.7c-1.41,1.23-3.22,1.9-5.34,1.87-4.02-.07-7.41-2.96-7.32-7.88.1-5.82,4.39-9.99,9.73-9.89,2.51.04,4.49.88,5.58,2.7l.49-2.34,5.02.09ZM99.67,10.39c.04-2.35-1.38-3.85-3.89-3.9-2.96-.05-5.12,2.23-5.18,5.6-.04,2.35,1.38,3.85,3.89,3.9,2.96.05,5.12-2.23,5.18-5.6Z"/>
    <path class="st1" d="M124.08,6.91l-1.98,4.28c-.43-.14-.7-.24-1.11-.34-2.87-.71-5.05.18-6.45,3.18l-3.63,7.72-4.87-1.2,7.48-15.98,4.62,1.14-.9,1.9c1.9-1.25,4.11-1.37,6.83-.7Z"/>
    <path class="st1" d="M128.33,9.11l4.61,1.89-9.73,14.72-4.62-1.88,9.73-14.72ZM130.61,4.62c.63-1.55,2.35-2.27,4.2-1.51,1.64.67,2.33,2.13,1.79,3.44-.69,1.7-2.42,2.35-4.26,1.59-1.64-.67-2.27-2.18-1.72-3.52Z"/>
    <path class="st1" d="M153.9,23.79l-12.44,12.49-3.96-2.64,1.21-1.24c-1.84.28-3.73-.13-5.5-1.31-3.34-2.23-4.64-6.48-1.92-10.58,3.22-4.84,9.08-6.04,13.52-3.08,2.09,1.39,3.3,3.16,3.24,5.28l1.67-1.7,4.17,2.78ZM144.16,26.57c1.3-1.95.92-3.98-1.17-5.37-2.46-1.64-5.51-.89-7.38,1.92-1.3,1.95-.92,3.99,1.17,5.38,2.46,1.64,5.51.89,7.38-1.92Z"/>
    <path class="st1" d="M166,45.56c-.49.42-1.07.83-1.74,1.19l-8.53,4.77-3.26-3.81,8.24-4.61c.38-.2.72-.45.99-.68,1.34-1.15,1.47-2.53.18-4.05-1.65-1.93-3.88-2.35-6.57-.85l-7.79,4.39-3.26-3.81,15.37-8.64,3.09,3.62-1.67.92c2.12.26,3.93,1.33,5.31,2.94,2.47,2.88,2.53,6.12-.37,8.61Z"/>
    <path class="st1" d="M164.81,51.29c5.21-2.43,10.96-.29,13.53,5.22,2.24,4.81.91,9.18-3.34,11.17-5.22,2.43-10.95.32-13.53-5.22-2.23-4.78-.88-9.2,3.34-11.16ZM172.65,63.17c2.12-.99,2.87-2.9,1.81-5.17-1.25-2.68-4.24-3.63-7.3-2.2-2.13.99-2.85,2.93-1.8,5.2,1.24,2.65,4.23,3.59,7.29,2.17Z"/>
  </g>
  <g>
    <path class="st1" d="M94.3,177.26c-45.61,0-83.47-37.16-84.99-84.1-.12-3.76,0-7.55.34-11.26.08-.84.81-1.46,1.65-1.37.83.08,1.45.82,1.37,1.65-.34,3.59-.45,7.25-.33,10.88,1.5,46.19,39.42,82.64,84.59,81.12,45.14-1.46,80.66-40.23,79.16-86.42-.06-2-.2-4.04-.4-6.05-.09-.83.52-1.58,1.36-1.66.82-.07,1.58.52,1.66,1.36.21,2.08.35,4.18.42,6.25,1.55,47.86-35.28,88.04-82.09,89.55-.91.03-1.82.04-2.72.04Z"/>
    <path class="st1" d="M171.56,82.59c-.41-3.12,1.79-5.99,4.91-6.4s5.99,1.79,6.4,4.91c.41,3.12-1.79,5.99-4.91,6.4-3.12.41-5.99-1.79-6.4-4.91Z"/>
    <path class="st1" d="M16.88,82.95c.34-3.13-1.92-5.94-5.05-6.29-3.13-.34-5.94,1.92-6.29,5.05-.34,3.13,1.92,5.94,5.05,6.29,3.13.34,5.94-1.92,6.29-5.05Z"/>
  </g>
</svg>