<?xml version="1.0" encoding="UTF-8"?>
<svg id="Capa_1" xmlns="http://www.w3.org/2000/svg" version="1.1" viewBox="0 0 164.33 176.88">
  <!-- Generator: Adobe Illustrator 29.3.1, SVG Export Plug-In . SVG Version: 2.1.0 Build 151)  -->
  <defs>
    <style>
      .st0 {
        fill: #3c3c3b;
      }

      .st1 {
        fill: #fff;
      }
    </style>
  </defs>
  <g>
    <circle class="st1" cx="82.16" cy="95.98" r="55.97"/>
    <path class="st0" d="M95.36,73.72l-.09-.08c-2.38-2.27-3.74-5.46-3.74-8.75v-.34h2.23c.95,0,1.71-.77,1.71-1.71v-7.47c0-.95-.77-1.71-1.71-1.71h-23.21c-.95,0-1.71.77-1.71,1.71v7.47c0,.95.77,1.71,1.71,1.71h2.23v.34c0,3.29-1.36,6.48-3.74,8.75l-.09.08c-3.05,2.92-4.8,7.01-4.8,11.23v43.35c0,5.52,4.49,10,10,10h16c5.52,0,10-4.49,10-10v-43.35c0-4.22-1.75-8.31-4.8-11.23ZM72.27,57.08h19.78v4.04h-19.78v-4.04ZM71.33,76.2l.09-.08c3.05-2.92,4.8-7.01,4.8-11.23v-.34h11.9v.34c0,4.22,1.75,8.31,4.8,11.23l.09.08c2.38,2.27,3.74,5.46,3.74,8.75v1.05h-29.15v-1.05c0-3.29,1.36-6.48,3.74-8.75ZM90.16,134.87h-16c-3.63,0-6.58-2.95-6.58-6.58v-38.88h29.15v38.88c0,3.63-2.95,6.58-6.58,6.58Z"/>
    <path class="st0" d="M74.16,129.42c-.62,0-1.12-.5-1.12-1.12v-25.46c0-.95-.77-1.71-1.71-1.71s-1.71.77-1.71,1.71v25.46c0,2.51,2.04,4.55,4.55,4.55.95,0,1.71-.77,1.71-1.71s-.77-1.71-1.71-1.71Z"/>
  </g>
  <g>
    <path class="st1" d="M12.01,28.39l3.8-3.61,9.93,15.75,8.17-7.78,2.3,3.67-11.95,11.37-12.25-19.4Z"/>
    <path class="st1" d="M47.01,10.15l5.33,16.81-4.17,2.29-.54-1.65c-.61,1.77-1.84,3.25-3.7,4.28-3.52,1.94-7.9,1.12-10.27-3.19-2.81-5.1-1.17-10.85,3.51-13.42,2.2-1.21,4.33-1.47,6.19-.44l-.74-2.27,4.39-2.42ZM44.99,20.08c-1.13-2.06-3.11-2.65-5.31-1.44-2.59,1.43-3.33,4.48-1.7,7.44,1.13,2.06,3.11,2.65,5.31,1.44,2.59-1.43,3.33-4.48,1.7-7.44Z"/>
    <path class="st1" d="M53.9,18.18c-1.39-5.58,1.81-10.82,7.79-12.31,3.59-.89,6.65-.03,8.6,2.36l-3.6,3.08c-1.14-1.37-2.59-1.77-4.31-1.34-2.87.72-4.43,3.49-3.62,6.73.57,2.28,2.34,3.39,4.83,2.77,1.68-.42,2.95-1.46,3.56-3.27l4.15,1.35c-.99,2.93-3.55,5.16-6.98,6.01-5.21,1.3-9.29-.86-10.42-5.38Z"/>
    <path class="st1" d="M79.67,15.1c-.06.26-.05.48-.04.71.04,1.06.64,1.65,1.89,1.6.67-.02,1.37-.27,2-.68l.86,3.54c-1.22.81-2.76,1.13-4.27,1.18-3.21.11-5.46-1.61-5.56-4.63-.02-.48.03-1,.11-1.51l1.14-7.02-2.67.1.64-3.88,2.66-.09.69-4.24,5.01-.18-.69,4.23,4.3-.15-.64,3.88-4.3.15-1.14,6.99Z"/>
    <path class="st1" d="M87.09,13.26c1-5.67,6.05-9.16,12.03-8.1,5.22.92,8.05,4.51,7.24,9.14-1,5.67-6.01,9.16-12.03,8.1-5.19-.91-8.05-4.55-7.24-9.14ZM101.32,13.64c.4-2.31-.73-4.01-3.2-4.45-2.91-.51-5.4,1.4-5.99,4.73-.4,2.31.76,4.02,3.23,4.45,2.88.51,5.37-1.41,5.96-4.73Z"/>
    <path class="st1" d="M104.59,22.41l3.23-2.55c.95,1.51,2.84,3.04,4.84,3.92,2.15.94,3.35.77,3.76-.17.98-2.23-8.21-4.07-5.86-9.42,1.57-3.56,5.77-4.1,10.38-2.07,2.21.97,4.19,2.44,5.27,3.9l-3.12,2.63c-1.07-1.56-2.68-2.61-4.15-3.26-2.12-.93-3.37-.64-3.74.21-1.02,2.32,8.15,4.14,5.83,9.41-1.59,3.62-5.84,4.03-10.4,2.03-2.79-1.23-5.13-3.1-6.04-4.62Z"/>
    <path class="st1" d="M146.8,29.52l-13.3,11.57-3.76-2.91,1.3-1.15c-1.86.15-3.72-.39-5.39-1.69-3.18-2.46-4.17-6.8-1.16-10.69,3.56-4.6,9.49-5.38,13.7-2.12,1.98,1.53,3.07,3.39,2.86,5.5l1.79-1.58,3.97,3.07ZM136.89,31.61c1.44-1.85,1.2-3.91-.79-5.44-2.34-1.81-5.43-1.28-7.5,1.39-1.44,1.85-1.2,3.91.79,5.44,2.34,1.81,5.43,1.28,7.5-1.39Z"/>
  </g>
  <g>
    <path class="st1" d="M82.07,176.88c-20.47,0-39.93-7.51-55.17-21.37C10.65,140.75,1.13,120.54.09,98.62c-.63-13.17,1.94-26.42,7.44-38.31.35-.76,1.26-1.09,2.01-.74.76.35,1.09,1.25.74,2.01-5.29,11.45-7.77,24.21-7.16,36.89,1.01,21.11,10.17,40.57,25.81,54.79s35.88,21.45,56.99,20.49c21.11-1.01,40.57-10.17,54.79-25.81,14.22-15.64,21.49-35.88,20.49-56.99-.67-13.97-5.01-27.52-12.57-39.19-.45-.7-.25-1.64.45-2.1.71-.46,1.65-.25,2.1.45,7.85,12.12,12.36,26.19,13.05,40.69,1.04,21.92-6.51,42.94-21.28,59.18-14.76,16.24-34.96,25.76-56.89,26.8-1.34.06-2.67.1-4,.1Z"/>
    <path class="st1" d="M145.37,54.43c-1.79-2.59-1.15-6.14,1.44-7.93,2.59-1.79,6.14-1.15,7.93,1.44,1.79,2.59,1.15,6.14-1.44,7.93-2.59,1.79-6.14,1.15-7.93-1.44Z"/>
    <path class="st1" d="M13.9,63.75c1.41-2.82.26-6.24-2.56-7.65-2.82-1.41-6.24-.26-7.65,2.56-1.41,2.82-.26,6.24,2.56,7.65,2.82,1.41,6.24.26,7.65-2.56Z"/>
  </g>
</svg>