<?xml version="1.0" encoding="UTF-8"?>
<svg id="Capa_1" xmlns="http://www.w3.org/2000/svg" version="1.1" viewBox="0 0 166.63 174.77">
  <!-- Generator: Adobe Illustrator 29.3.1, SVG Export Plug-In . SVG Version: 2.1.0 Build 151)  -->
  <defs>
    <style>
      .st0 {
        fill: #3c3c3b;
      }

      .st1 {
        fill: #fff;
      }
    </style>
  </defs>
  <g>
    <circle class="st1" cx="83.31" cy="92.35" r="55.78"/>
    <path class="st0" d="M91.45,67.8c-2.32-3.47-4.98-6.23-7.92-8.19-3.21-2.15-6.59-3.24-10.05-3.24s-6.84,1.09-10.05,3.24c-2.94,1.96-5.6,4.72-7.92,8.19-4.55,6.82-7.16,15.52-7.16,23.87s2.54,15.12,7.35,20.01c4.5,4.58,10.81,7.11,17.78,7.11s13.28-2.52,17.78-7.11c4.81-4.9,7.35-11.82,7.35-20.01s-2.61-17.05-7.16-23.87ZM88.97,109.43c-3.89,3.96-9.39,6.14-15.48,6.14s-11.59-2.18-15.48-6.14c-4.21-4.28-6.43-10.42-6.43-17.76,0-7.73,2.41-15.78,6.62-22.08,4.3-6.45,9.73-10,15.29-10s10.99,3.55,15.29,10c4.21,6.3,6.62,14.35,6.62,22.08s-2.22,13.48-6.43,17.76Z"/>
    <path class="st0" d="M73.48,61.78c-4.73,0-9.64,3.29-13.47,9.02-.49.74-.29,1.74.45,2.23.27.18.58.27.89.27.52,0,1.03-.25,1.34-.72,3.22-4.82,7.15-7.59,10.79-7.59.89,0,1.61-.72,1.61-1.61s-.72-1.61-1.61-1.61Z"/>
    <path class="st0" d="M113.6,93.27c-.95-3.63-2.4-6.75-4.31-9.28-2.09-2.77-4.64-4.68-7.57-5.7-2.93-1.02-6.12-1.08-9.48-.21-3.07.8-6.14,2.36-9.13,4.62-5.86,4.45-10.63,11.06-13.09,18.15-2.41,6.95-2.29,13.57.36,19.14,2.47,5.21,7.09,9.21,12.99,11.25,5.91,2.05,12.01,1.76,17.17-.81,5.52-2.74,9.71-7.87,12.11-14.82,2.45-7.08,2.8-15.23.94-22.35Z"/>
    <path class="st1" d="M99.26,127.86c-4.46,2.22-9.77,2.45-14.94.66-5.17-1.79-9.19-5.26-11.33-9.76-2.31-4.87-2.39-10.73-.24-16.96,2.27-6.56,6.68-12.68,12.1-16.79,5.54-4.21,11.2-5.62,15.91-3.99,4.72,1.63,8.28,6.24,10.04,12.98,1.72,6.58,1.4,14.12-.87,20.68-2.16,6.22-5.85,10.78-10.67,13.18Z"/>
    <path class="st0" d="M100.13,82.88c-4.02-1.39-9.15-.04-14.08,3.7-.64.48-.76,1.39-.28,2.02.18.24.42.4.68.49.44.15.95.09,1.35-.21,4.15-3.15,8.3-4.34,11.39-3.27.75.26,1.58-.14,1.84-.89.26-.75-.14-1.58-.89-1.84Z"/>
  </g>
  <g>
    <path class="st1" d="M43.36,2.64l7.99,21.51-4.43,2.74-3.25-8.76-8.67,5.35,3.25,8.76-4.46,2.75-7.99-21.51,4.46-2.75,3.14,8.45,8.67-5.35-3.14-8.45,4.43-2.74Z"/>
    <path class="st1" d="M70.41.53l.98,17.61-4.61,1.19-.12-1.9c-1.13,1.79-2.9,2.94-4.92,3.46-3.58.92-6.52-.44-7.48-4.15-.16-.62-.27-1.32-.3-2.08l-.55-9.75,4.86-1.25.53,9.42c.02.46.09.87.19,1.25.43,1.68,1.58,2.38,3.48,1.9,2.4-.62,3.73-2.42,3.57-5.5l-.48-8.94,4.86-1.25Z"/>
    <path class="st1" d="M93.28,10.39l-13.25-.21c.12,2.35,1.55,3.56,4.41,3.61,1.77.03,3.45-.52,4.66-1.53l2.03,3.35c-2.02,1.58-4.63,2.24-7.27,2.2-5.4-.09-8.79-3.2-8.72-7.89C75.25,4.11,79.5-.1,85.51,0c5.05.08,8.18,3.12,8.1,7.75-.01.93-.16,1.83-.33,2.63ZM80.44,7.25l8.58.14c.04-2.28-1.49-3.59-3.8-3.63-2.41-.04-4.07,1.35-4.79,3.49Z"/>
    <path class="st1" d="M117.6,6.06l-14.7,14.06-5.01-1.29.61-17.69,4.79,1.24-.52,12.04,9.97-9.6,4.85,1.25Z"/>
    <path class="st1" d="M114.25,15.45c2.75-5.05,8.65-6.74,13.98-3.83,4.65,2.54,6.18,6.85,3.93,10.97-2.75,5.05-8.62,6.75-13.98,3.82-4.63-2.52-6.17-6.88-3.93-10.97ZM127.6,20.36c1.12-2.06.59-4.03-1.61-5.23-2.59-1.42-5.56-.4-7.18,2.56-1.12,2.06-.56,4.05,1.64,5.25,2.57,1.4,5.54.38,7.15-2.58Z"/>
  </g>
  <g>
    <path class="st1" d="M83.31,174.77C37.38,174.77,0,137.4,0,91.46c0-18.78,6.1-36.51,17.63-51.26.52-.67,1.47-.77,2.13-.26.66.52.78,1.47.26,2.13C8.91,56.28,3.03,73.36,3.03,91.46c0,44.27,36.01,80.28,80.28,80.28s80.28-36.01,80.28-80.28c0-21.13-8.14-41.08-22.93-56.18-.59-.6-.58-1.56.02-2.14.6-.59,1.56-.58,2.14.02,15.34,15.66,23.79,36.37,23.79,58.29,0,45.94-37.37,83.31-83.31,83.31Z"/>
    <path class="st1" d="M137.87,38.55c-2.24-2.22-2.25-5.83-.03-8.06,2.22-2.24,5.83-2.25,8.06-.03,2.24,2.22,2.25,5.83.03,8.06-2.22,2.24-5.83,2.25-8.06.03Z"/>
    <path class="st1" d="M23.11,44.99c1.99-2.44,1.63-6.03-.81-8.02-2.44-1.99-6.03-1.63-8.02.81-1.99,2.44-1.63,6.03.81,8.02,2.44,1.99,6.03,1.63,8.02-.81Z"/>
  </g>
</svg>