<?xml version="1.0" encoding="UTF-8"?>
<svg id="Capa_1" xmlns="http://www.w3.org/2000/svg" version="1.1" viewBox="0 0 163.02 172.68">
  <!-- Generator: Adobe Illustrator 29.3.1, SVG Export Plug-In . SVG Version: 2.1.0 Build 151)  -->
  <defs>
    <style>
      .st0 {
        fill: #3c3c3b;
      }

      .st1 {
        fill: #fff;
      }
    </style>
  </defs>
  <g>
    <circle class="st1" cx="81.51" cy="92.31" r="55.97"/>
    <path class="st0" d="M126.32,75.43c-.69-.28-1.48-.13-2.01.4l-8.07,8.07c-10.52-10.52-23.59-16.29-36.98-16.29-7.91,0-15.62,1.95-22.91,5.79-7.5,3.96-14.23,9.76-19.98,17.24l-.42.54c-.51.66-.51,1.58,0,2.24l.42.54c5.76,7.49,12.48,13.29,19.98,17.24,7.29,3.84,14.99,5.79,22.91,5.79,6.89,0,13.66-1.49,20.14-4.43,6.09-2.77,11.75-6.75,16.85-11.86l8.07,8.07c.53.53,1.32.68,2.01.4.69-.28,1.14-.96,1.14-1.7v-30.37c0-.74-.45-1.42-1.14-1.7ZM39.73,92.31c7.49-9.53,16.64-16.05,26.57-19.08,1.75,6.1,2.63,12.51,2.63,19.08s-.89,12.98-2.63,19.08c-9.93-3.03-19.08-9.55-26.57-19.08ZM123.77,103.05l-6.25-6.25c-.35-.35-.83-.54-1.33-.54-.5,0-.97.22-1.31.58-5.1,5.41-10.83,9.58-17.01,12.39-5.99,2.72-12.25,4.1-18.61,4.1-3.18,0-6.31-.34-9.39-1.01,1.82-6.41,2.75-13.13,2.75-20.01s-.93-13.6-2.75-20.01c3.07-.67,6.21-1.01,9.39-1.01,6.36,0,12.62,1.38,18.61,4.1,6.19,2.81,11.91,6.98,17.01,12.39.34.36.81.57,1.31.58.5,0,.98-.19,1.33-.54l6.25-6.25v21.48Z"/>
    <path class="st0" d="M57.27,81.41c-3.33,0-6.04,2.71-6.04,6.04s2.71,6.04,6.04,6.04,6.04-2.71,6.04-6.04-2.71-6.04-6.04-6.04ZM57.27,89.81c-1.3,0-2.36-1.06-2.36-2.36s1.06-2.36,2.36-2.36,2.36,1.06,2.36,2.36-1.06,2.36-2.36,2.36Z"/>
  </g>
  <g>
    <path class="st1" d="M24.93,20.99c4.09,3.99,3.71,9.5-.98,14.31l-3.5,3.59,3.59,5.21-3.66,3.75L7.42,28.91l6.35-6.51c3.93-4.03,8.01-4.49,11.16-1.41ZM21.57,25.08c-1.57-1.53-3.38-1.14-5.22.75l-2.85,2.92,4.49,6.58,3.08-3.15c2.4-2.46,2.64-5.01.5-7.1Z"/>
    <path class="st1" d="M47.75,16.9l-11.42,6.71c1.33,1.94,3.17,2.24,5.64.79,1.52-.89,2.67-2.24,3.18-3.73l3.48,1.8c-.9,2.4-2.79,4.32-5.06,5.66-4.66,2.73-9.17,1.84-11.54-2.2-2.93-4.99-1.49-10.79,3.69-13.84,4.35-2.56,8.61-1.59,10.95,2.4.47.8.82,1.65,1.09,2.42ZM35.16,20.9l7.4-4.34c-1.16-1.97-3.14-2.3-5.13-1.12-2.08,1.22-2.78,3.27-2.27,5.47Z"/>
    <path class="st1" d="M50.52,21.92l.78-4.04c1.71.52,4.14.45,6.23-.19,2.25-.69,3.04-1.6,2.74-2.58-.71-2.34-8.88,2.27-10.59-3.32-1.13-3.72,1.7-6.87,6.53-8.35,2.31-.7,4.77-.88,6.54-.48l-.65,4.03c-1.83-.48-3.74-.24-5.27.23-2.21.68-2.97,1.71-2.7,2.61.74,2.43,8.88-2.17,10.56,3.33,1.16,3.78-1.8,6.87-6.57,8.32-2.92.89-5.91,1-7.6.44Z"/>
    <path class="st1" d="M67.03,10.82c-.41-5.74,3.64-10.35,9.8-10.79,3.69-.26,6.56,1.11,8.07,3.81l-4.08,2.42c-.88-1.55-2.25-2.19-4.02-2.07-2.95.21-4.96,2.68-4.73,6.01.17,2.34,1.72,3.74,4.29,3.56,1.73-.12,3.16-.93,4.07-2.61l3.85,2.04c-1.48,2.72-4.39,4.47-7.91,4.73-5.36.38-9.01-2.45-9.34-7.1Z"/>
    <path class="st1" d="M108.57,3.61l-6.51,16.39-4.68-.86.62-1.62c-1.59.98-3.49,1.35-5.57.97-3.96-.73-6.83-4.13-5.94-8.97,1.05-5.72,5.96-9.14,11.21-8.18,2.47.45,4.28,1.6,5.07,3.58l.87-2.23,4.93.91ZM100.72,10.02c.42-2.31-.73-4.03-3.2-4.48-2.91-.53-5.41,1.36-6.02,4.68-.43,2.31.73,4.03,3.2,4.48,2.91.53,5.41-1.36,6.02-4.68Z"/>
    <path class="st1" d="M135.84,9.1l-14.85,19.26-4.26-2.11,1.09-1.4c-1.79.51-3.71.39-5.64-.57-3.6-1.78-5.43-5.85-3.25-10.25,2.58-5.21,8.24-7.15,13.02-4.78,2.25,1.11,3.63,2.73,3.89,4.76l5.51-7.14,4.49,2.23ZM122.48,18.4c1.04-2.1.4-4.07-1.85-5.18-2.65-1.31-5.58-.18-7.08,2.84-1.04,2.1-.4,4.07,1.85,5.18,2.65,1.31,5.58.18,7.08-2.85Z"/>
    <path class="st1" d="M129.21,24.55c3.84-4.29,9.97-4.59,14.5-.54,3.96,3.54,4.46,8.08,1.33,11.59-3.84,4.29-9.95,4.61-14.5.54-3.93-3.51-4.44-8.11-1.33-11.59ZM141.1,32.38c1.57-1.75,1.5-3.8-.37-5.47-2.21-1.97-5.33-1.66-7.58.86-1.57,1.75-1.47,3.82.4,5.49,2.18,1.95,5.31,1.64,7.56-.88Z"/>
  </g>
  <g>
    <path class="st1" d="M81.51,172.68C36.57,172.68,0,136.11,0,91.17c0-12.35,2.69-24.21,8-35.26.36-.76,1.27-1.07,2.02-.71.75.36,1.07,1.27.71,2.02-5.11,10.64-7.7,22.06-7.7,33.95,0,43.27,35.21,78.48,78.48,78.48s78.48-35.21,78.48-78.48c0-13.85-3.66-27.47-10.58-39.38-.42-.72-.18-1.65.55-2.07.72-.42,1.65-.18,2.07.55,7.19,12.37,10.99,26.51,10.99,40.9,0,44.95-36.57,81.51-81.51,81.51Z"/>
    <path class="st1" d="M146.03,54.3c-1.67-2.67-.85-6.19,1.82-7.85s6.19-.85,7.85,1.82c1.67,2.67.85,6.19-1.82,7.85-2.67,1.67-6.19.85-7.85-1.82Z"/>
    <path class="st1" d="M14.33,59.44c1.45-2.8.35-6.24-2.45-7.68-2.8-1.45-6.24-.35-7.68,2.45-1.45,2.8-.35,6.24,2.45,7.68,2.8,1.45,6.24.35,7.68-2.45Z"/>
  </g>
</svg>