<?xml version="1.0" encoding="UTF-8"?>
<svg id="Capa_1" xmlns="http://www.w3.org/2000/svg" version="1.1" viewBox="0 0 161.63 180.12">
  <!-- Generator: Adobe Illustrator 29.3.1, SVG Export Plug-In . SVG Version: 2.1.0 Build 151)  -->
  <defs>
    <style>
      .st0 {
        fill: #3c3c3b;
      }

      .st1 {
        fill: #fff;
      }
    </style>
  </defs>
  <g>
    <circle class="st1" cx="80.81" cy="99.68" r="55.78"/>
    <path class="st0" d="M91.32,60.91c-.91,0-1.64.73-1.64,1.64v12.69c0,4.31-3.12,7.89-7.22,8.62v-5.85c0-.91-.73-1.64-1.64-1.64s-1.64.73-1.64,1.64v5.85c-4.1-.73-7.22-4.32-7.22-8.62v-12.69c0-.91-.73-1.64-1.64-1.64s-1.64.73-1.64,1.64v62.9c0,6.12,4.59,11.18,10.5,11.94v16.81c0,.91.73,1.64,1.64,1.64s1.64-.73,1.64-1.64v-16.81c5.92-.76,10.5-5.82,10.5-11.94v-62.9c0-.91-.73-1.64-1.64-1.64ZM79.17,87.17v9.24c-4.1-.73-7.22-4.32-7.22-8.62v-4.31c1.87,1.98,4.39,3.33,7.22,3.69ZM79.17,99.73v9.24c-4.1-.73-7.22-4.32-7.22-8.62v-4.31c1.87,1.98,4.39,3.33,7.22,3.69ZM79.17,112.28v9.24c-4.1-.73-7.22-4.32-7.22-8.62v-4.31c1.87,1.98,4.39,3.33,7.22,3.69ZM71.95,125.45v-4.31c1.87,1.98,4.39,3.33,7.22,3.69v9.24c-4.1-.73-7.22-4.32-7.22-8.62ZM89.68,125.45c0,4.31-3.12,7.89-7.22,8.62v-9.24c2.83-.36,5.36-1.71,7.22-3.69v4.31ZM89.68,112.76v.14c0,4.31-3.12,7.89-7.22,8.62v-9.24c2.83-.36,5.36-1.71,7.22-3.69v4.17ZM89.68,100.21v.14c0,4.31-3.12,7.89-7.22,8.62v-9.24c2.83-.36,5.36-1.71,7.22-3.69v4.17ZM89.68,87.66v.14c0,4.31-3.12,7.89-7.22,8.62v-9.24c2.83-.36,5.36-1.71,7.22-3.69v4.17Z"/>
  </g>
  <g>
    <path class="st1" d="M39.05,16.66l-6.46,3.18-1.1-4.19,17.6-8.67,1.1,4.19-6.43,3.17,4.79,18.01-4.67,2.3-4.82-17.99Z"/>
    <path class="st1" d="M65.49,8.43l.28,4.71c-.44.08-.73.12-1.14.22-2.86.73-4.36,2.54-4.18,5.85l.46,8.51-4.86,1.24-.96-17.61,4.61-1.18.11,2.1c1.08-2,2.98-3.15,5.69-3.84Z"/>
    <path class="st1" d="M70.22,8.37l4.95-.52-1.6,17.55-4.95.52,1.6-17.55ZM70.11,3.34c-.18-1.66,1-3.11,2.98-3.32,1.76-.19,3.05.77,3.2,2.18.19,1.82-1.02,3.21-3,3.42-1.76.19-3.03-.84-3.18-2.28Z"/>
    <path class="st1" d="M100.06,9.15l-4.18,14.07c-1.93,6.5-5.93,8.87-11.88,8.32-3.36-.31-6.1-1.38-7.98-3.03l2.7-3.39c1.24,1.24,3.44,2.19,5.87,2.42,3.46.32,5.16-1.07,6.04-3.92l.2-.72c-1.46,1.12-3.31,1.63-5.43,1.43-4.25-.4-7.36-3.43-6.94-7.94.49-5.28,4.97-9.02,10.47-8.51,2.56.24,4.68,1.34,5.54,3.62l.8-2.76,4.77.44ZM92.6,15.78c.19-2.08-1.09-3.52-3.55-3.75-2.94-.27-5.25,1.61-5.52,4.55-.19,2.08,1.16,3.53,3.62,3.76,2.91.27,5.19-1.61,5.46-4.56Z"/>
    <path class="st1" d="M101.35,19.57c2.06-5.37,7.69-7.83,13.36-5.65,4.95,1.9,7.04,5.97,5.36,10.36-2.06,5.37-7.66,7.84-13.36,5.65-4.92-1.89-7.03-6.01-5.36-10.36ZM115.24,22.67c.84-2.19.05-4.08-2.29-4.98-2.76-1.06-5.57.34-6.78,3.49-.84,2.19-.02,4.09,2.32,4.99,2.73,1.05,5.54-.35,6.75-3.5Z"/>
  </g>
  <g>
    <path class="st1" d="M80.81,180.12C36.25,180.12,0,143.86,0,99.3c0-21.33,8.24-41.45,23.19-56.66.59-.6,1.55-.61,2.14-.02.6.59.61,1.55.02,2.14C10.96,59.41,3.03,78.78,3.03,99.3c0,42.89,34.89,77.78,77.78,77.78s77.78-34.89,77.78-77.78c0-20.53-7.93-39.9-22.32-54.54-.59-.6-.58-1.55.02-2.14.59-.59,1.55-.58,2.14.02,14.96,15.21,23.2,35.33,23.2,56.67,0,44.56-36.25,80.82-80.81,80.82Z"/>
    <path class="st1" d="M133.49,48.03c-2.24-2.21-2.27-5.82-.07-8.06,2.21-2.24,5.82-2.27,8.06-.07,2.24,2.21,2.27,5.82.07,8.06-2.21,2.24-5.82,2.27-8.06.07Z"/>
    <path class="st1" d="M28.13,48.03c2.24-2.21,2.27-5.82.07-8.06-2.21-2.24-5.82-2.27-8.06-.07-2.24,2.21-2.27,5.82-.07,8.06,2.21,2.24,5.82,2.27,8.06.07Z"/>
  </g>
</svg>