<?xml version="1.0" encoding="UTF-8"?>
<svg id="Capa_1" xmlns="http://www.w3.org/2000/svg" version="1.1" viewBox="0 0 180.3 177.02">
  <!-- Generator: Adobe Illustrator 29.3.1, SVG Export Plug-In . SVG Version: 2.1.0 Build 151)  -->
  <defs>
    <style>
      .st0 {
        fill: #3c3c3b;
      }

      .st1 {
        fill: #fff;
      }
    </style>
  </defs>
  <g>
    <circle class="st1" cx="93.37" cy="94.4" r="55.97"/>
    <path class="st0" d="M104.08,60.29c-3.38-1.62-6.25-4.05-8.32-7.02l-.83-1.2c-.35-.51-.94-.82-1.56-.82s-1.2.31-1.56.82l-.83,1.2c-2.06,2.97-4.94,5.4-8.32,7.02-13.57,6.5-23.8,23.97-23.8,40.64,0,5.36.91,10.4,2.69,14.99,1.72,4.42,4.21,8.31,7.4,11.58,6.32,6.47,14.99,10.04,24.42,10.04s18.1-3.57,24.42-10.04c3.19-3.27,5.68-7.17,7.4-11.58,1.79-4.59,2.69-9.63,2.69-14.99,0-16.67-10.23-34.14-23.8-40.64ZM115.07,124.86c-5.6,5.74-13.3,8.89-21.7,8.89s-16.1-3.16-21.7-8.89c-5.9-6.04-9.01-14.32-9.01-23.93,0-7.47,2.26-15.41,6.36-22.35,4.02-6.79,9.44-12.08,15.28-14.87,3.59-1.72,6.7-4.23,9.07-7.29,2.37,3.06,5.48,5.57,9.07,7.29,5.84,2.8,11.26,8.08,15.28,14.87,4.1,6.94,6.36,14.87,6.36,22.35,0,9.61-3.12,17.88-9.01,23.93Z"/>
    <path class="st0" d="M116.87,88.82c.03-.15.12-.37.21-.61.07-.18.14-.35.2-.53.87-2.51-.07-4.8-2.39-5.84-.71-.32-.8-.47-.72-1.24.14-1.25-.02-2.63-.43-3.88-.58-1.76-2.12-2.89-3.93-2.89-.37,0-.75.05-1.11.15-.16.04-.29.06-.41.06-.14,0-.38,0-.87-.79-1.01-1.65-2.45-2.78-4.16-3.26-.56-.16-1.13-.24-1.7-.24-2.84,0-5.35,1.94-6.24,4.83-.68,2.21-.23,4.22.13,5.84.48,2.15.31,3.47-.6,4.56-.47.56-1.04.68-1.43.68h-.02s-.03,0-.05,0h-.02c-.39,0-.96-.12-1.43-.68-.91-1.09-1.08-2.41-.6-4.56.36-1.61.81-3.62.13-5.84-.89-2.89-3.4-4.83-6.24-4.83-.57,0-1.14.08-1.7.24-1.71.48-3.15,1.61-4.16,3.26-.49.79-.73.79-.87.79-.11,0-.25-.02-.41-.06-.37-.1-.74-.15-1.11-.15-1.8,0-3.35,1.13-3.93,2.89-.41,1.25-.57,2.63-.43,3.88.08.77,0,.92-.72,1.24-2.32,1.04-3.26,3.33-2.39,5.84.06.18.13.35.2.53.09.24.18.46.21.61.02.09.03.16.04.22-1.64,1.05-2.8,2.45-3.44,4.16-.08.21-.12.44-.12.67v1.87c0,.42.14.84.4,1.17.02.03.05.06.07.09.97,2.12,2.37,3.39,4.17,3.8-1.25.7-2.41,1.89-3.11,3.97-.71,2.11.18,5.14,2.03,6.9,1.25,1.2,2.74,1.52,3.94,1.78l.08.02c.11.02.19.05.25.07-.02.06-.04.14-.08.23-.13.32-.32.66-.52,1.03l-.11.19c-1.25,2.29-.82,4.6,1.16,6.18.45.36.94.68,1.44.96.81.43.82.67.77,1.16-.15,1.48.44,2.86.81,3.54.96,1.8,2.99,2.96,5.19,2.96.39,0,.79-.04,1.17-.11,2.46-.48,4.61-2.7,4.99-5.18.12-.75.17-1.48.21-2.18.04-.63.08-1.23.17-1.81.06-.37.15-.53.17-.56,0,0,.02,0,.06-.02.02,0,.03,0,.03,0,.02.01.17.09.41.42.29.41.55.91.82,1.44.12.24.24.47.37.7.07.12.14.27.2.42.04.08.07.16.11.23.3.63.92,1.04,1.61,1.07.07,0,.14,0,.21,0,.07,0,.14,0,.21,0,.69-.04,1.31-.45,1.61-1.07.03-.07.07-.15.11-.23.07-.14.13-.29.2-.41.13-.23.25-.47.37-.7.27-.53.53-1.03.82-1.44.25-.36.4-.42.4-.42,0,0,.01,0,.03,0,.04,0,.05.01.06.01.03.03.12.2.18.56.09.57.13,1.17.17,1.81.05.7.1,1.43.21,2.18.38,2.48,2.53,4.7,4.99,5.18.38.07.78.11,1.17.11,2.2,0,4.23-1.16,5.19-2.96.37-.69.96-2.07.81-3.54-.05-.49-.04-.73.77-1.16.51-.27.99-.59,1.44-.96,1.97-1.59,2.41-3.9,1.16-6.18l-.11-.19c-.2-.36-.39-.71-.52-1.03-.04-.09-.07-.17-.08-.23.06-.02.14-.05.25-.07l.08-.02c1.2-.26,2.68-.59,3.93-1.78,1.85-1.76,2.74-4.8,2.03-6.91-.43-1.29-1.21-2.91-3.12-3.97,1.8-.41,3.2-1.69,4.18-3.81.02-.03.05-.06.07-.09.26-.33.4-.75.4-1.17v-1.87c0-.23-.04-.45-.12-.67-.64-1.71-1.8-3.1-3.44-4.16,0-.06.02-.13.04-.22ZM116.6,95.13s-.05.09-.07.14c-.76,1.73-1.47,1.88-2.14,1.88h0c-.41,0-.9-.08-1.46-.25-.62-.19-1.27-.26-1.88-.22-1.65.12-2.84,1.16-3.1,2.73-.29,1.69.5,3.15,2,3.7.75.27,1.49.38,2.15.48h.03c1.8.26,2.61.89,3.12,2.39.2.58-.2,2.13-1.05,2.95-.46.44-1.11.6-2.12.82l-.08.02c-1.73.38-2.52,1.29-2.88,1.98-.36.69-.65,1.86.02,3.48.21.51.46.96.7,1.4l.1.18c.42.78.25,1.04-.21,1.41-.27.22-.56.41-.87.57-2.04,1.1-2.96,2.74-2.74,4.89.03.27-.08.81-.38,1.38-.3.57-1.04.95-1.84.95-.15,0-.3-.01-.45-.04-.89-.17-1.83-1.14-1.97-2.04-.09-.59-.13-1.2-.18-1.86-.05-.68-.09-1.39-.2-2.11-.3-2.03-1.49-3.39-3.26-3.74-.25-.05-.51-.08-.76-.08-.94,0-2.31.35-3.5,2.02-.08.11-.15.22-.22.33-.07-.11-.15-.22-.22-.33-1.19-1.67-2.56-2.02-3.5-2.02-.25,0-.51.03-.76.08-1.77.35-2.96,1.71-3.26,3.74-.11.72-.16,1.43-.2,2.11-.04.65-.09,1.27-.18,1.86-.14.89-1.08,1.86-1.97,2.04-.14.03-.29.04-.45.04-.8,0-1.54-.38-1.84-.95-.3-.57-.41-1.11-.38-1.38.22-2.15-.7-3.79-2.74-4.89-.3-.16-.59-.36-.87-.57-.46-.37-.63-.63-.21-1.41l.1-.18c.24-.44.49-.89.7-1.4.68-1.62.39-2.79.02-3.48-.36-.7-1.16-1.61-2.88-1.98l-.08-.02c-1.02-.22-1.67-.38-2.12-.82-.85-.82-1.25-2.37-1.05-2.95.51-1.51,1.32-2.13,3.12-2.39h.03c.66-.1,1.41-.21,2.15-.48,1.51-.55,2.3-2.01,2-3.7-.27-1.56-1.46-2.61-3.1-2.73-.6-.04-1.25.03-1.88.22-.56.17-1.05.25-1.46.25-.67,0-1.38-.15-2.14-1.88-.02-.05-.04-.1-.07-.14v-.89c.4-.87,1.05-1.56,2.03-2.13,1.97-1.17,1.56-3.3,1.43-4-.1-.5-.26-.92-.41-1.29-.05-.13-.1-.25-.14-.38-.29-.84.02-.98.35-1.13,2.21-.99,3.2-2.71,2.94-5.11-.08-.72.02-1.55.26-2.28.09-.29.25-.29.32-.29.05,0,.1,0,.15.02.47.12.93.18,1.37.18,2.51,0,3.71-1.96,4.11-2.61.52-.85,1.16-1.37,1.95-1.59.22-.06.45-.1.67-.1,1.16,0,2.21.87,2.61,2.15.36,1.16.14,2.34-.21,3.89-.47,2.08-.83,5.16,1.39,7.82,1.09,1.3,2.67,2.04,4.34,2.04h.05s.05,0,.05,0c1.67,0,3.26-.74,4.34-2.04,2.23-2.66,1.86-5.74,1.39-7.82-.35-1.54-.56-2.73-.21-3.89.4-1.29,1.45-2.15,2.61-2.15.22,0,.45.03.67.1.8.22,1.44.74,1.95,1.59.39.65,1.6,2.61,4.11,2.61.44,0,.9-.06,1.37-.18.06-.01.11-.02.15-.02.07,0,.23,0,.32.29.24.74.34,1.57.26,2.28-.26,2.41.73,4.13,2.94,5.11.33.15.64.29.35,1.13-.04.13-.09.25-.14.38-.15.37-.31.79-.41,1.29-.14.7-.55,2.83,1.43,4,.98.58,1.63,1.26,2.03,2.13v.89Z"/>
  </g>
  <g>
    <path class="st1" d="M5.4,61.4l5.21,3.1,3.48-9.85,3.65,2.21-3.46,9.79,7.18,4.28-1.75,4.94L0,64.12l5.67-16.03,3.65,2.21-3.92,11.09Z"/>
    <path class="st1" d="M18.84,36.92l3.47,3.19c-.26.37-.44.6-.66.95-1.55,2.52-1.37,4.86,1.06,7.1l6.24,5.8-2.63,4.27-12.92-11.99,2.49-4.05,1.53,1.43c-.61-2.19-.05-4.33,1.42-6.71Z"/>
    <path class="st1" d="M34.85,20.14l9.95,14.55-3.33,3.4-1.09-1.56c-.05,2.11-.96,4.01-2.42,5.5-2.58,2.64-5.81,2.99-8.54.32-.46-.45-.92-.99-1.34-1.62l-5.52-8.05,3.51-3.58,5.33,7.78c.26.38.53.7.81.97,1.24,1.21,2.58,1.22,3.95-.18,1.73-1.77,1.93-4,.2-6.55l-5.03-7.4,3.51-3.58Z"/>
    <path class="st1" d="M50.01,23.7c.09.25.21.44.33.63.58.89,1.39,1.09,2.45.41.57-.36,1.04-.94,1.37-1.61l2.55,2.6c-.64,1.33-1.79,2.38-3.07,3.2-2.7,1.74-5.52,1.41-7.15-1.13-.26-.41-.48-.87-.68-1.36l-2.61-6.61-2.25,1.44-1.44-3.66,2.24-1.44-1.58-3.99,4.22-2.72,1.58,3.99,3.62-2.33,1.44,3.66-3.62,2.33,2.6,6.59Z"/>
    <path class="st1" d="M55.51,18.31c-2.02-5.39.56-10.96,6.25-13.09,4.97-1.86,9.23-.2,10.88,4.2,2.02,5.39-.53,10.94-6.25,13.09-4.94,1.85-9.24.17-10.88-4.2ZM67.96,11.41c-.82-2.2-2.67-3.09-5.02-2.21-2.77,1.04-3.94,3.95-2.76,7.11.82,2.2,2.69,3.07,5.04,2.19,2.74-1.03,3.91-3.94,2.73-7.1Z"/>
    <path class="st1" d="M75.17,17.31l1.48-3.84c1.59.81,4,1.17,6.17.91,2.33-.28,3.27-1.04,3.15-2.07-.29-2.43-9.14.69-9.85-5.12-.47-3.86,2.88-6.47,7.89-7.08,2.39-.29,4.85-.04,6.52.67l-1.35,3.85c-1.71-.79-3.64-.89-5.23-.69-2.3.28-3.23,1.17-3.11,2.09.31,2.52,9.13-.59,9.82,5.12.48,3.93-2.97,6.45-7.92,7.05-3.03.37-6-.05-7.56-.9Z"/>
    <path class="st1" d="M100.16,15.44l2.63-3.16c1.25,1.28,3.41,2.38,5.55,2.83,2.29.48,3.43.06,3.64-.95.5-2.39-8.88-2.27-7.7-8,.79-3.81,4.79-5.21,9.73-4.18,2.36.49,4.61,1.51,5.97,2.72l-2.51,3.22c-1.37-1.3-3.16-2-4.73-2.33-2.27-.47-3.43.07-3.62.99-.52,2.49,8.83,2.36,7.66,7.99-.8,3.87-4.88,5.16-9.75,4.15-2.99-.62-5.66-1.96-6.87-3.26Z"/>
    <path class="st1" d="M136.33,21.49l-11.98-5.63c-.85,2.19-.05,3.88,2.54,5.1,1.6.75,3.36.94,4.87.51l.48,3.88c-2.49.61-5.14.14-7.53-.98-4.89-2.29-6.7-6.52-4.71-10.77,2.46-5.23,8.06-7.33,13.5-4.78,4.57,2.15,6.18,6.2,4.21,10.39-.39.84-.89,1.6-1.38,2.26ZM125.91,13.36l7.77,3.65c.97-2.07.12-3.88-1.98-4.87-2.18-1.02-4.27-.44-5.79,1.22Z"/>
    <path class="st1" d="M138.66,22.77c3.64-4.46,9.75-5.04,14.54-1.14,2.87,2.33,4.02,5.3,3.27,8.31l-4.63-1.04c.42-1.73-.14-3.14-1.51-4.26-2.29-1.87-5.45-1.45-7.56,1.14-1.48,1.82-1.32,3.91.68,5.53,1.35,1.1,2.94,1.48,4.75.88l1.41,4.13c-2.94.96-6.26.25-9-1.98-4.17-3.39-4.89-7.96-1.94-11.57Z"/>
    <path class="st1" d="M153.59,35.11c4.61-3.45,10.68-2.53,14.32,2.34,3.18,4.25,2.77,8.81-.98,11.62-4.61,3.45-10.66,2.55-14.32-2.34-3.16-4.22-2.75-8.83.98-11.62ZM163.69,45.14c1.88-1.41,2.22-3.42.71-5.43-1.77-2.37-4.9-2.68-7.6-.66-1.88,1.41-2.2,3.45-.7,5.46,1.75,2.34,4.88,2.66,7.58.63Z"/>
    <path class="st1" d="M160.1,53.81l4.1.35c-.34,1.75,0,4.16.85,6.17.92,2.16,1.92,2.85,2.86,2.45,2.25-.96-3.21-8.59,2.17-10.89,3.58-1.52,7.01.96,8.99,5.6.95,2.22,1.39,4.65,1.18,6.45l-4.08-.22c.29-1.87-.16-3.74-.79-5.22-.91-2.13-2.02-2.77-2.88-2.41-2.34,1,3.11,8.6-2.19,10.86-3.64,1.55-7.02-1.06-8.98-5.64-1.2-2.81-1.62-5.77-1.25-7.51Z"/>
  </g>
  <g>
    <path class="st1" d="M93.37,177.02c-44.96,0-81.53-36.58-81.53-81.54,0-1.22.03-2.43.08-3.63.04-.83.71-1.54,1.58-1.45.84.04,1.49.74,1.45,1.58-.05,1.16-.07,2.33-.07,3.5,0,43.29,35.22,78.51,78.5,78.51s78.5-35.22,78.5-78.51c0-3.54-.24-7.1-.71-10.58-.11-.83.47-1.59,1.3-1.7.82-.09,1.59.47,1.7,1.3.48,3.62.73,7.31.73,10.99,0,44.96-36.58,81.54-81.53,81.54Z"/>
    <path class="st1" d="M166.99,85.85c-.48-3.11,1.66-6.02,4.78-6.5,3.11-.47,6.02,1.66,6.5,4.78s-1.66,6.02-4.78,6.5-6.02-1.66-6.5-4.78Z"/>
    <path class="st1" d="M19.23,92.52c.17-3.14-2.23-5.83-5.38-6.01-3.14-.17-5.83,2.23-6.01,5.38-.17,3.14,2.23,5.83,5.38,6.01,3.14.17,5.83-2.23,6.01-5.38Z"/>
  </g>
</svg>