<?xml version="1.0" encoding="UTF-8"?>
<svg id="Capa_1" xmlns="http://www.w3.org/2000/svg" version="1.1" viewBox="0 0 161.63 180.23">
  <!-- Generator: Adobe Illustrator 29.3.1, SVG Export Plug-In . SVG Version: 2.1.0 Build 151)  -->
  <defs>
    <style>
      .st0 {
        fill: #3c3c3b;
      }

      .st1 {
        fill: #fff;
      }
    </style>
  </defs>
  <g>
    <circle class="st1" cx="80.81" cy="100.35" r="55.78"/>
    <path class="st0" d="M106.9,124.71l-18.32-31.1v-24.46h.87c.85,0,1.53-.69,1.53-1.53s-.69-1.53-1.53-1.53h-17.28c-.85,0-1.53.69-1.53,1.53s.69,1.53,1.53,1.53h.87v24.46l-18.32,31.1c-1.29,2-1.38,4.45-.24,6.55,1.14,2.11,3.26,3.37,5.66,3.37h41.35c2.4,0,4.51-1.26,5.66-3.37,1.14-2.1,1.05-4.54-.24-6.55ZM75.9,94.81c.14-.24.21-.5.21-.78v-24.88h9.4v24.88c0,.27.07.54.21.78l4.26,7.23h-18.34l4.26-7.23ZM104.45,129.79c-.6,1.1-1.7,1.76-2.96,1.76h-41.35c-1.25,0-2.36-.66-2.96-1.76-.6-1.1-.55-2.39.14-3.44.01-.02.02-.04.04-.06l12.49-21.19h21.95l12.49,21.19s.02.04.04.06c.68,1.05.73,2.34.14,3.44Z"/>
    <path class="st0" d="M73.04,117.87c-.11-.03-.26-.08-.46-.14-.84-.26-1.26-.59-1.26-.98,0-.24.1-.44.29-.59.19-.15.45-.22.77-.22.2,0,.48.06.86.17.38.11.66.17.83.17.3,0,.54-.08.71-.24.17-.16.26-.39.26-.67,0-.4-.24-.73-.73-1-.49-.27-1.1-.4-1.85-.4-1.02,0-1.85.28-2.48.84-.64.56-.95,1.28-.95,2.16,0,.68.2,1.23.59,1.64.39.41,1.09.76,2.08,1.05.68.21,1.13.4,1.34.59.21.18.31.42.31.72,0,.28-.1.51-.31.7-.2.19-.46.28-.76.28-.35,0-.78-.08-1.29-.24-.51-.16-.85-.24-1.01-.24-.33,0-.58.09-.78.27-.19.18-.29.41-.29.7,0,.41.3.76.9,1.07.6.3,1.32.46,2.17.46,1.1,0,1.99-.29,2.66-.88.67-.59,1.01-1.36,1.01-2.31,0-.69-.21-1.26-.62-1.73-.42-.46-1.08-.84-1.98-1.15Z"/>
    <path class="st0" d="M80.93,113.94c-1.39,0-2.51.46-3.37,1.38-.86.92-1.28,2.13-1.28,3.63s.43,2.71,1.28,3.63c.85.92,1.98,1.38,3.37,1.38s2.52-.46,3.38-1.38c.86-.92,1.28-2.13,1.28-3.63,0-1.49-.43-2.7-1.29-3.62-.86-.92-1.98-1.39-3.37-1.39ZM82.61,121.1c-.42.53-.98.8-1.67.8s-1.25-.27-1.67-.8c-.42-.53-.63-1.24-.63-2.12s.21-1.64.62-2.18c.42-.54.98-.81,1.68-.81s1.26.27,1.68.81c.42.54.62,1.26.62,2.18s-.21,1.59-.63,2.12Z"/>
    <path class="st0" d="M92.29,126.36c-.25-.16-.64-.25-1.15-.25h-1.99c1.33-1.32,2.21-2.31,2.64-2.99s.64-1.32.64-1.94c0-.82-.28-1.49-.85-2.02-.56-.53-1.29-.79-2.19-.79-.51,0-.98.11-1.41.32-.43.21-.81.51-1.13.91-.2.25-.36.54-.48.86-.12.32-.18.62-.18.89,0,.33.1.6.3.8.2.2.45.31.77.31.24,0,.44-.07.59-.22.15-.15.3-.44.46-.87.12-.32.26-.56.44-.73.18-.17.37-.25.59-.25.23,0,.43.08.58.25.15.17.23.39.23.65,0,.31-.16.7-.48,1.19-.32.48-.96,1.25-1.92,2.31-.1.11-.23.26-.41.45-.87.95-1.31,1.58-1.31,1.88,0,.34.11.59.32.75.21.16.54.25.98.25h3.82c.52,0,.9-.08,1.15-.25.25-.16.38-.42.38-.75s-.13-.58-.38-.75Z"/>
  </g>
  <g>
    <path class="st1" d="M21.98,49.67l-1.08-4.42c2.54-.23,5.12-1.39,7.12-3.16,2.15-1.9,2.83-3.84,1.75-5.07-2.39-2.7-9.47,6.14-14.22.77-3.07-3.47-2.02-8.4,2.66-12.53,2.26-2,4.81-3.35,7.11-3.71l1.17,4.29c-2.04.26-4.07,1.28-5.73,2.75-2.26,2-2.82,4.04-1.76,5.25,2.43,2.79,9.53-6.07,14.11-.89,3.09,3.49,1.99,8.46-2.71,12.62-2.75,2.43-6.07,3.91-8.43,4.11Z"/>
    <path class="st1" d="M49.41,13.13l4.57,17.02-4.26,2.1-.51-1.83c-.74,1.98-2.23,3.47-4.1,4.39-3.31,1.63-6.47.9-8.16-2.53-.28-.58-.54-1.24-.72-1.97l-2.54-9.42,4.49-2.22,2.45,9.11c.11.45.27.84.44,1.18.77,1.55,2.03,2.01,3.79,1.14,2.22-1.1,3.15-3.13,2.36-6.11l-2.3-8.65,4.49-2.22Z"/>
    <path class="st1" d="M55.94,4.85l4.85-1.29,1.53,24.27-4.85,1.29-1.53-24.27Z"/>
    <path class="st1" d="M75.35,8.12l-.11.65,4.4-.13-.66,3.88-4.27.12-2.23,13.11-5.01.14,2.23-13.11-2.7.08.66-3.88,2.7-.08.16-1c.66-3.78,3.1-6.29,7.34-6.41,1.54-.05,3,.27,4.01.85l-1.85,3.65c-.56-.4-1.24-.58-2.01-.55-1.54.04-2.35.87-2.66,2.68ZM84.8,8.1l4.98-.14-2.94,17.38-4.98.14,2.94-17.37ZM91.32,2.42c.05,1.83-1.26,3.12-3.25,3.18-1.77.05-2.96-1.07-3-2.52-.05-1.67,1.23-3.02,3.22-3.08,1.77-.05,2.99,1.01,3.03,2.42Z"/>
    <path class="st1" d="M98.22,21.31c-.12.24-.16.46-.21.68-.22,1.04.22,1.76,1.44,2.02.66.14,1.4.07,2.11-.18l-.03,3.64c-1.39.49-2.95.42-4.42.11-3.14-.67-4.9-2.89-4.27-5.85.1-.47.27-.96.47-1.44l2.81-6.53-2.61-.56,1.56-3.61,2.61.56,1.7-3.94,4.9,1.05-1.7,3.94,4.21.9-1.56,3.61-4.21-.9-2.81,6.5Z"/>
    <path class="st1" d="M105.84,21.34c2.36-5.24,8.12-7.37,13.65-4.87,4.83,2.18,6.68,6.36,4.75,10.64-2.37,5.24-8.09,7.38-13.66,4.87-4.8-2.17-6.67-6.39-4.75-10.64ZM119.53,25.23c.96-2.14.28-4.07-2-5.1-2.69-1.21-5.58.02-6.97,3.1-.96,2.14-.26,4.08,2.03,5.11,2.66,1.2,5.55-.03,6.94-3.11Z"/>
    <path class="st1" d="M120.57,34.53l3.75-1.68c.55,1.69,2.01,3.64,3.73,4.98,1.85,1.44,3.06,1.57,3.69.76,1.5-1.93-6.96-5.96-3.37-10.57,2.39-3.07,6.6-2.56,10.57.54,1.9,1.48,3.47,3.39,4.15,5.07l-3.67,1.78c-.65-1.77-1.95-3.19-3.22-4.18-1.82-1.42-3.11-1.44-3.68-.71-1.56,2,6.88,6.01,3.35,10.55-2.43,3.12-6.65,2.47-10.58-.59-2.41-1.88-4.22-4.26-4.72-5.96Z"/>
  </g>
  <g>
    <path class="st1" d="M80.81,180.23C36.25,180.23,0,143.98,0,99.41c0-12.85,2.93-25.14,8.71-36.52.38-.75,1.29-1.05,2.04-.67.75.38,1.04,1.29.67,2.04-5.56,10.95-8.37,22.78-8.37,35.15,0,42.89,34.89,77.78,77.78,77.78s77.78-34.89,77.78-77.78c0-14.44-3.98-28.53-11.52-40.76-.44-.71-.22-1.65.5-2.09.72-.44,1.65-.22,2.09.5,7.83,12.71,11.97,27.36,11.97,42.35,0,44.56-36.25,80.81-80.81,80.81Z"/>
    <path class="st1" d="M143.75,61.25c-1.73-2.63-1.01-6.16,1.62-7.9,2.63-1.73,6.16-1.01,7.9,1.62,1.73,2.63,1.01,6.16-1.62,7.9-2.63,1.73-6.16,1.01-7.9-1.62Z"/>
    <path class="st1" d="M14.95,66.57c1.51-2.76.49-6.23-2.27-7.73-2.76-1.51-6.23-.49-7.73,2.27s-.49,6.23,2.27,7.73c2.76,1.51,6.23.49,7.73-2.27Z"/>
  </g>
</svg>