<?xml version="1.0" encoding="UTF-8" standalone="no"?>
<!-- Created with Inkscape (http://www.inkscape.org/) -->

<svg
   width="230"
   height="230"
   id="svg4209"
   version="1.1"
   inkscape:version="0.48.5 r10040"
   sodipodi:docname="celery.svg"
   inkscape:export-filename="crustaceans.svg"
   inkscape:export-xdpi="96"
   inkscape:export-ydpi="96"
   xml:space="preserve"
   xmlns:inkscape="http://www.inkscape.org/namespaces/inkscape"
   xmlns:sodipodi="http://sodipodi.sourceforge.net/DTD/sodipodi-0.dtd"
   xmlns="http://www.w3.org/2000/svg"
   xmlns:svg="http://www.w3.org/2000/svg"
   xmlns:rdf="http://www.w3.org/1999/02/22-rdf-syntax-ns#"
   xmlns:cc="http://creativecommons.org/ns#"
   xmlns:dc="http://purl.org/dc/elements/1.1/"><defs
     id="defs4211" /><sodipodi:namedview
     id="base"
     pagecolor="#ffffff"
     bordercolor="#666666"
     borderopacity="1.0"
     inkscape:pageopacity="0.0"
     inkscape:pageshadow="2"
     inkscape:zoom="0.40062104"
     inkscape:cx="322.16755"
     inkscape:cy="488.13389"
     inkscape:document-units="px"
     inkscape:current-layer="layer1"
     showgrid="false"
     inkscape:window-width="1280"
     inkscape:window-height="924"
     inkscape:window-x="0"
     inkscape:window-y="28"
     inkscape:window-maximized="1"
     inkscape:showpageshadow="2"
     inkscape:pagecheckerboard="0"
     inkscape:deskcolor="#d1d1d1" /><metadata
     id="metadata4214"><rdf:RDF><cc:Work
         rdf:about=""><dc:format>image/svg+xml</dc:format><dc:type
           rdf:resource="http://purl.org/dc/dcmitype/StillImage" /></cc:Work></rdf:RDF></metadata><g
     inkscape:label="Capa 1"
     inkscape:groupmode="layer"
     id="layer1"
     transform="translate(0,-680.31494)"><g
       id="g4972"
       transform="matrix(5.5766334,0,0,5.5766334,-1089.981,-1075.1874)"><ellipse
         style="fill:#6d351e;fill-opacity:1;stroke:#6d351e;stroke-width:0.4;stroke-linecap:round;stroke-linejoin:round;stroke-miterlimit:4;stroke-dasharray:none;stroke-dashoffset:0;stroke-opacity:1"
         id="path3230-0-5"
         transform="matrix(1.1124938,0,0,1.0913035,192.07692,303.45594)"
         cx="21.573027"
         cy="29.287827"
         rx="18.363815"
         ry="18.720394" /><g
         id="g4264"
         transform="translate(-72.470092,306.21785)"><path
           inkscape:connector-curvature="0"
           id="path4240"
           d="m 290.7187,17.293747 2.125,-0.71875 1.5625,-0.40625 1,0.03125 0.75,0.25 0.625,0.59375 0.0625,0.71875 -0.125,0.5 -0.53125,0.4375 -0.90625,0.46875 -0.65625,0.40625 -0.375,0.5 -0.25,1.0625 -0.1875,0.875 0.1875,1.34375 0.6875,0.90625 0.9375,1.3125 1.03125,2.21875 0.4375,1.4375 0.40625,2.53125 0.125,1.78125 -0.0937,1.71875 -0.34375,1.875 -0.5625,1.34375 -0.65625,1.125 -0.75,1.21875 -0.71875,0.71875 -0.875,0.5 -1.59375,0.1875 -4.3125,-0.0625 -1.375,-0.125 -0.65625,-0.15625 -0.53125,-0.34375 -0.6875,-0.75 -1.46875,-2.1875 -0.5625,-1.5625 -0.375,-1.40625 -0.0625,-1.40625 0.0313,-0.59375 -0.46875,-0.6875 -0.6875,-1.25 -0.625,-1.28125 -0.5625,-1.9375 -0.21875,-1.09375 0.15625,-1.5625 0.28125,-1.53125 0.59375,-1.25 1.15625,-1.28125 1.1875,-0.65625 1.28125,-0.4375 -0.53125,-1.0625 -0.15625,-0.78125 0.125,-0.53125 0.6875,-0.5 1.375,-0.40625 1.46875,-0.21875 h 1.125 1.09375 l 0.65625,0.09375 -0.125,0.0625 -0.5625,0.15625 h -0.75 l -0.90625,0.0625 -1.28125,0.125 -0.96875,0.3125 -0.5625,0.3125 0.15625,0.3125 0.625,0.15625 0.9375,0.125 0.40625,-0.03125 0.875,-0.3125 1.46875,-0.625 1.0625,-0.46875 z"
           style="fill:#ffffff;stroke:#ffffff;stroke-width:0.05;stroke-linecap:round;stroke-linejoin:round;stroke-miterlimit:4;stroke-dasharray:none;stroke-opacity:1" /><path
           inkscape:connector-curvature="0"
           id="path4253"
           d="m 282.10937,31.153122 0.23438,-1.46875 0.48437,-1.65625 0.59375,-1.515625 0.53125,-0.984375 0.45313,-0.6875 0.14062,-0.25 0.20313,-0.578125 0.0469,-0.953125 -0.10937,-0.65625 -0.14063,-0.171875 -0.21875,-0.109375 -0.17187,0.0625 -0.90625,0.5 -0.64063,0.46875 -0.89062,0.921875 -0.46875,0.796875 -0.32813,1 -0.0937,1.046875 0.10938,1.03125 0.1875,0.953125 0.29687,0.875 0.3125,0.65625 z"
           style="fill:#6d351e;fill-opacity:1;stroke:#6d351e;stroke-width:0.05;stroke-linecap:butt;stroke-linejoin:round;stroke-miterlimit:4;stroke-dasharray:none;stroke-opacity:1" /><path
           inkscape:connector-curvature="0"
           id="path4255"
           d="m 286.125,20.793747 0.42187,-0.140625 0.46875,-0.01563 0.28125,0.0625 0.15625,0.328125 0.0625,0.5 v 0.984375 l -0.0313,0.890625 -0.14062,0.875 -0.28125,0.6875 -0.17188,0.34375 -0.25,0.5 -0.29687,0.484375 -0.46875,0.765625 -0.3125,0.734375 -0.53125,1.1875 -0.375,1.09375 -0.25,0.609375 -0.20313,0.5 -0.20312,0.109375 -0.17188,-0.03125 -0.10937,-0.07813 -0.0625,-0.3125 0.28125,-1.5 0.375,-1.109375 0.53125,-1.4375 0.54687,-1.015625 0.45313,-0.875 0.3125,-0.703125 0.0937,-0.578125 -0.15625,-1.28125 -0.0781,-0.90625 L 286,21.106247 Z"
           style="fill:#6d351e;fill-opacity:1;stroke:#6d351e;stroke-width:0.05;stroke-linecap:round;stroke-linejoin:round;stroke-miterlimit:4;stroke-dasharray:none;stroke-opacity:1" /></g></g></g></svg>
